<?xml version="1.0" encoding="UTF-8"?>
<svg width="64px" height="64px" viewBox="0 0 64 64" version="1.1" xmlns="http://www.w3.org/2000/svg" xmlns:xlink="http://www.w3.org/1999/xlink">
    <!-- Generator: Sketch 52.5 (67469) - http://www.bohemiancoding.com/sketch -->
    <title>icon_bad</title>
    <desc>Created with Sketch.</desc>
    <g id="icon_bad" stroke="none" stroke-width="1" fill="none" fill-rule="evenodd">
        <g>
            <g id="分组-2-copy-3"></g>
            <g id="分组-2-copy-2" transform="translate(32.000000, 33.000000) scale(1, -1) translate(-32.000000, -33.000000) translate(16.000000, 18.000000)">
                <g id="qbzuo01">
                    <g id="分组" transform="translate(5.230126, 0.000000)">
                        <polygon id="Clip-2" points="0.00146443515 0.0116317992 25.4376569 0.0116317992 25.4376569 29.9582008 0.00146443515 29.9582008"></polygon>
                        <path d="M21.8300418,11.5572803 L14.6139331,11.5572803 C14.2532218,11.5572803 13.8923431,11.1964017 14.0728033,10.8356904 C15.1551046,7.22774059 15.8766946,0.0116317992 11.1864017,0.0116317992 C9.02146444,0.0116317992 7.39786611,1.27439331 7.21757322,3.61958159 C7.21757322,3.61958159 7.03715481,10.655272 0.542635983,12.2788703 C0.181924686,12.2788703 0.00146443515,12.6395816 0.00146443515,12.8200418 L0.00146443515,29.4170293 C0.00146443515,29.7777406 0.181924686,29.9582008 0.542635983,29.9582008 L18.5828033,29.7777406 C19.6651046,29.7777406 20.0259833,29.7777406 20.9280335,29.4170293 C22.0103347,28.8756904 22.1907531,27.6129707 22.1907531,27.6129707 C22.1907531,27.973682 25.0771548,16.9693305 25.4380335,14.9848117 C25.4380335,13.5416318 25.0771548,11.5572803 21.8300418,11.5572803 Z M22.9123431,15.5261506 L20.0259833,26.5305021 C20.0259833,26.5305021 19.8455649,27.2520921 18.9435146,27.4325105 L3.24874477,27.4325105 C2.88786611,27.4325105 2.70757322,27.2520921 2.70757322,26.8913808 L2.70757322,14.6241004 C2.70757322,14.2632218 2.88786611,14.0829707 3.24874477,14.0829707 C7.75874477,12.6395816 9.20192469,8.49046025 9.20192469,8.49046025 C9.92351464,6.86686192 9.74305439,3.07845188 11.1864017,3.07845188 C13.8923431,3.07845188 12.0882845,9.57297071 11.5471548,11.9179916 C11.5471548,12.0984519 11.1864017,14.0829707 12.8098745,14.0829707 L21.6496234,14.0829707 C21.6496234,13.9025105 23.0928033,14.0829707 22.9123431,15.5261506 Z" id="Fill-1" fill="#303133"></path>
                    </g>
                    <path d="M1.44317992,12.0984519 C0.541171548,12.0984519 0,12.6395816 0,13.3613389 L0,28.6954393 C0,29.4170293 0.541171548,29.9582008 1.26276151,29.9582008 L1.44317992,29.9582008 C2.16476987,29.9582008 2.70594142,29.4170293 2.70594142,28.6954393 L2.70594142,13.3613389 C2.70594142,12.6395816 2.16476987,12.0984519 1.44317992,12.0984519 Z" id="Fill-3" fill="#303133"></path>
                </g>
            </g>
        </g>
        <g id="icon_bad-copy">
            <g id="分组-2-copy-3"></g>
            <g id="分组-2-copy-2" transform="translate(32.000000, 33.000000) scale(1, -1) translate(-32.000000, -33.000000) translate(16.000000, 18.000000)">
                <g id="qbzuo01">
                    <g id="分组" transform="translate(5.230126, 0.000000)">
                        <polygon id="Clip-2" points="0.00146443515 0.0116317992 25.4376569 0.0116317992 25.4376569 29.9582008 0.00146443515 29.9582008"></polygon>
                        <path d="M21.8300418,11.5572803 L14.6139331,11.5572803 C14.2532218,11.5572803 13.8923431,11.1964017 14.0728033,10.8356904 C15.1551046,7.22774059 15.8766946,0.0116317992 11.1864017,0.0116317992 C9.02146444,0.0116317992 7.39786611,1.27439331 7.21757322,3.61958159 C7.21757322,3.61958159 7.03715481,10.655272 0.542635983,12.2788703 C0.181924686,12.2788703 0.00146443515,12.6395816 0.00146443515,12.8200418 L0.00146443515,29.4170293 C0.00146443515,29.7777406 0.181924686,29.9582008 0.542635983,29.9582008 L18.5828033,29.7777406 C19.6651046,29.7777406 20.0259833,29.7777406 20.9280335,29.4170293 C22.0103347,28.8756904 22.1907531,27.6129707 22.1907531,27.6129707 C22.1907531,27.973682 25.0771548,16.9693305 25.4380335,14.9848117 C25.4380335,13.5416318 25.0771548,11.5572803 21.8300418,11.5572803 Z M22.9123431,15.5261506 L20.0259833,26.5305021 C20.0259833,26.5305021 19.8455649,27.2520921 18.9435146,27.4325105 L3.24874477,27.4325105 C2.88786611,27.4325105 2.70757322,27.2520921 2.70757322,26.8913808 L2.70757322,14.6241004 C2.70757322,14.2632218 2.88786611,14.0829707 3.24874477,14.0829707 C7.75874477,12.6395816 9.20192469,8.49046025 9.20192469,8.49046025 C9.92351464,6.86686192 9.74305439,3.07845188 11.1864017,3.07845188 C13.8923431,3.07845188 12.0882845,9.57297071 11.5471548,11.9179916 C11.5471548,12.0984519 11.1864017,14.0829707 12.8098745,14.0829707 L21.6496234,14.0829707 C21.6496234,13.9025105 23.0928033,14.0829707 22.9123431,15.5261506 Z" id="Fill-1" fill="#303133"></path>
                    </g>
                    <path d="M1.44317992,12.0984519 C0.541171548,12.0984519 0,12.6395816 0,13.3613389 L0,28.6954393 C0,29.4170293 0.541171548,29.9582008 1.26276151,29.9582008 L1.44317992,29.9582008 C2.16476987,29.9582008 2.70594142,29.4170293 2.70594142,28.6954393 L2.70594142,13.3613389 C2.70594142,12.6395816 2.16476987,12.0984519 1.44317992,12.0984519 Z" id="Fill-3" fill="#303133"></path>
                </g>
            </g>
        </g>
        <g id="icon_bad-copy-2">
            <g id="分组-2-copy-3"></g>
            <g id="分组-2-copy-2" transform="translate(32.000000, 33.000000) scale(1, -1) translate(-32.000000, -33.000000) translate(16.000000, 18.000000)">
                <g id="qbzuo01">
                    <g id="分组" transform="translate(5.230126, 0.000000)">
                        <polygon id="Clip-2" points="0.00146443515 0.0116317992 25.4376569 0.0116317992 25.4376569 29.9582008 0.00146443515 29.9582008"></polygon>
                        <path d="M21.8300418,11.5572803 L14.6139331,11.5572803 C14.2532218,11.5572803 13.8923431,11.1964017 14.0728033,10.8356904 C15.1551046,7.22774059 15.8766946,0.0116317992 11.1864017,0.0116317992 C9.02146444,0.0116317992 7.39786611,1.27439331 7.21757322,3.61958159 C7.21757322,3.61958159 7.03715481,10.655272 0.542635983,12.2788703 C0.181924686,12.2788703 0.00146443515,12.6395816 0.00146443515,12.8200418 L0.00146443515,29.4170293 C0.00146443515,29.7777406 0.181924686,29.9582008 0.542635983,29.9582008 L18.5828033,29.7777406 C19.6651046,29.7777406 20.0259833,29.7777406 20.9280335,29.4170293 C22.0103347,28.8756904 22.1907531,27.6129707 22.1907531,27.6129707 C22.1907531,27.973682 25.0771548,16.9693305 25.4380335,14.9848117 C25.4380335,13.5416318 25.0771548,11.5572803 21.8300418,11.5572803 Z M22.9123431,15.5261506 L20.0259833,26.5305021 C20.0259833,26.5305021 19.8455649,27.2520921 18.9435146,27.4325105 L3.24874477,27.4325105 C2.88786611,27.4325105 2.70757322,27.2520921 2.70757322,26.8913808 L2.70757322,14.6241004 C2.70757322,14.2632218 2.88786611,14.0829707 3.24874477,14.0829707 C7.75874477,12.6395816 9.20192469,8.49046025 9.20192469,8.49046025 C9.92351464,6.86686192 9.74305439,3.07845188 11.1864017,3.07845188 C13.8923431,3.07845188 12.0882845,9.57297071 11.5471548,11.9179916 C11.5471548,12.0984519 11.1864017,14.0829707 12.8098745,14.0829707 L21.6496234,14.0829707 C21.6496234,13.9025105 23.0928033,14.0829707 22.9123431,15.5261506 Z" id="Fill-1" fill="#303133"></path>
                    </g>
                    <path d="M1.44317992,12.0984519 C0.541171548,12.0984519 0,12.6395816 0,13.3613389 L0,28.6954393 C0,29.4170293 0.541171548,29.9582008 1.26276151,29.9582008 L1.44317992,29.9582008 C2.16476987,29.9582008 2.70594142,29.4170293 2.70594142,28.6954393 L2.70594142,13.3613389 C2.70594142,12.6395816 2.16476987,12.0984519 1.44317992,12.0984519 Z" id="Fill-3" fill="#303133"></path>
                </g>
            </g>
        </g>
        <g id="icon_bad-copy-3">
            <g id="分组-2-copy-3"></g>
            <g id="分组-2-copy-2" transform="translate(32.000000, 33.000000) scale(1, -1) translate(-32.000000, -33.000000) translate(16.000000, 18.000000)">
                <g id="qbzuo01">
                    <g id="分组" transform="translate(5.230126, 0.000000)">
                        <polygon id="Clip-2" points="0.00146443515 0.0116317992 25.4376569 0.0116317992 25.4376569 29.9582008 0.00146443515 29.9582008"></polygon>
                        <path d="M21.8300418,11.5572803 L14.6139331,11.5572803 C14.2532218,11.5572803 13.8923431,11.1964017 14.0728033,10.8356904 C15.1551046,7.22774059 15.8766946,0.0116317992 11.1864017,0.0116317992 C9.02146444,0.0116317992 7.39786611,1.27439331 7.21757322,3.61958159 C7.21757322,3.61958159 7.03715481,10.655272 0.542635983,12.2788703 C0.181924686,12.2788703 0.00146443515,12.6395816 0.00146443515,12.8200418 L0.00146443515,29.4170293 C0.00146443515,29.7777406 0.181924686,29.9582008 0.542635983,29.9582008 L18.5828033,29.7777406 C19.6651046,29.7777406 20.0259833,29.7777406 20.9280335,29.4170293 C22.0103347,28.8756904 22.1907531,27.6129707 22.1907531,27.6129707 C22.1907531,27.973682 25.0771548,16.9693305 25.4380335,14.9848117 C25.4380335,13.5416318 25.0771548,11.5572803 21.8300418,11.5572803 Z M22.9123431,15.5261506 L20.0259833,26.5305021 C20.0259833,26.5305021 19.8455649,27.2520921 18.9435146,27.4325105 L3.24874477,27.4325105 C2.88786611,27.4325105 2.70757322,27.2520921 2.70757322,26.8913808 L2.70757322,14.6241004 C2.70757322,14.2632218 2.88786611,14.0829707 3.24874477,14.0829707 C7.75874477,12.6395816 9.20192469,8.49046025 9.20192469,8.49046025 C9.92351464,6.86686192 9.74305439,3.07845188 11.1864017,3.07845188 C13.8923431,3.07845188 12.0882845,9.57297071 11.5471548,11.9179916 C11.5471548,12.0984519 11.1864017,14.0829707 12.8098745,14.0829707 L21.6496234,14.0829707 C21.6496234,13.9025105 23.0928033,14.0829707 22.9123431,15.5261506 Z" id="Fill-1" fill="#303133"></path>
                    </g>
                    <path d="M1.44317992,12.0984519 C0.541171548,12.0984519 0,12.6395816 0,13.3613389 L0,28.6954393 C0,29.4170293 0.541171548,29.9582008 1.26276151,29.9582008 L1.44317992,29.9582008 C2.16476987,29.9582008 2.70594142,29.4170293 2.70594142,28.6954393 L2.70594142,13.3613389 C2.70594142,12.6395816 2.16476987,12.0984519 1.44317992,12.0984519 Z" id="Fill-3" fill="#303133"></path>
                </g>
            </g>
        </g>
    </g>
</svg>