<?xml version="1.0" encoding="UTF-8"?>
<svg width="23px" height="14px" viewBox="0 0 23 14" version="1.1" xmlns="http://www.w3.org/2000/svg" xmlns:xlink="http://www.w3.org/1999/xlink">
    <!-- Generator: Sketch 52.1 (67048) - http://www.bohemiancoding.com/sketch -->
    <title>icon_chevron-left</title>
    <desc>Created with Sketch.</desc>
    <defs>
        <rect id="path-1" x="0" y="0" width="616" height="368" rx="20"></rect>
        <filter x="-2.3%" y="-2.7%" width="104.5%" height="107.6%" filterUnits="objectBoundingBox" id="filter-2">
            <feOffset dx="0" dy="4" in="SourceAlpha" result="shadowOffsetOuter1"></feOffset>
            <feGaussianBlur stdDeviation="4" in="shadowOffsetOuter1" result="shadowBlurOuter1"></feGaussianBlur>
            <feColorMatrix values="0 0 0 0 0.823262117   0 0 0 0 0.822839832   0 0 0 0 0.822839832  0 0 0 0.5 0" type="matrix" in="shadowBlurOuter1"></feColorMatrix>
        </filter>
        <linearGradient x1="2.21504697%" y1="2.21504697%" x2="100%" y2="100%" id="linearGradient-3">
            <stop stop-color="#FABF7A" offset="0%"></stop>
            <stop stop-color="#F37291" offset="100%"></stop>
        </linearGradient>
        <rect id="path-4" x="0" y="0" width="616" height="368" rx="20"></rect>
        <filter x="-2.3%" y="-2.7%" width="104.5%" height="107.6%" filterUnits="objectBoundingBox" id="filter-5">
            <feOffset dx="0" dy="4" in="SourceAlpha" result="shadowOffsetOuter1"></feOffset>
            <feGaussianBlur stdDeviation="4" in="shadowOffsetOuter1" result="shadowBlurOuter1"></feGaussianBlur>
            <feColorMatrix values="0 0 0 0 0.823262117   0 0 0 0 0.822839832   0 0 0 0 0.822839832  0 0 0 0.5 0" type="matrix" in="shadowBlurOuter1"></feColorMatrix>
        </filter>
    </defs>
    <g id="当前最新版本" stroke="none" stroke-width="1" fill="none" fill-rule="evenodd">
        <g id="首页-系统流程-copy" transform="translate(-370.000000, -800.000000)">
            <rect fill="#F5F7FA" x="0" y="0" width="2890" height="1334"></rect>
            <g id="分组-17" transform="translate(20.000000, 470.000000)">
                <g id="热门问题">
                    <g id="猜你想问-2" stroke-width="1" fill-rule="evenodd">
                        <g id="猜你想问">
                            <g id="矩形">
                                <use fill="black" fill-opacity="1" filter="url(#filter-2)" xlink:href="#path-1"></use>
                                <use fill="#FFFFFF" fill-rule="evenodd" xlink:href="#path-1"></use>
                            </g>
                            <g id="moreQ" transform="translate(241.266667, 320.000000)">
                                <g>
                                    <g id="icon_chevron-left" transform="translate(117.320611, 17.000000) rotate(-270.000000) translate(-117.320611, -17.000000) translate(103.000000, 3.000000)" fill="#909399" opacity="0.4" stroke="#808FA3" stroke-width="0.3">
                                        <g id="chevron-left">
                                            <path d="M8.50992708,5.99213065 C7.92031062,5.43780085 7.90179251,4.52103856 8.46881689,3.9442604 C8.75955114,3.64881094 9.14806098,3.5 9.53694119,3.5 C9.90656257,3.5 10.2761839,3.63396605 10.5635849,3.90407058 L20.1929996,12.9558309 C20.4833635,13.228832 20.6474339,13.6061094 20.6474339,14.000042 C20.6474339,14.3936125 20.4833635,14.7708899 20.1929996,15.043891 L10.5635849,24.0956513 C9.97396847,24.6499811 9.03584127,24.6322396 8.46881689,24.0554615 C7.90179251,23.4786833 7.92031062,22.561921 8.50992708,22.0075912 L17.0286258,14.000042 L8.50992708,5.99213065 Z"></path>
                                        </g>
                                    </g>
                                    <text id="更多问题" font-family="PingFangSC-Regular, PingFang SC" font-size="24" font-weight="normal" letter-spacing="-0.3520336" fill="#606266">
                                        <tspan x="0" y="25">更多问题</tspan>
                                    </text>
                                </g>
                            </g>
                            <g id="条目小" transform="translate(0.000000, 60.000000)">
                                <g stroke-width="1" fill-rule="evenodd" id="分组">
                                    <g>
                                        <rect id="矩形" fill="#FFFFFF" fill-rule="nonzero" x="0" y="0" width="616" height="60"></rect>
                                        <text id="工作餐报销费规定" font-family="PingFangSC-Regular, PingFang SC" font-size="28" font-weight="normal" letter-spacing="-0.4107059" fill="#303133">
                                            <tspan x="37" y="40">AMS Helpdesk 的联系方式是</tspan>
                                        </text>
                                        <g id="icon_chevron-left" transform="translate(569.800000, 19.000000)" fill="#909399" opacity="0.4" stroke="#808FA3" stroke-width="0.3">
                                            <path d="M1.3545905,2.99213065 C0.762803303,2.43780085 0.744217021,1.52103856 1.31332895,0.944260396 C1.60513357,0.64881094 1.99507375,0.5 2.38538565,0.5 C2.75636782,0.5 3.12735,0.633966053 3.41580908,0.904070581 L13.0806753,9.9558309 C13.3721082,10.228832 13.5367826,10.6061094 13.5367826,11.000042 C13.5367826,11.3936125 13.3721082,11.7708899 13.0806753,12.043891 L3.41580908,21.0956513 C2.82402189,21.6499811 1.88244088,21.6322396 1.31332895,21.0554615 C0.744217021,20.4786833 0.762803303,19.561921 1.3545905,19.0075912 L9.90465157,11.000042 L1.3545905,2.99213065 Z" id="chevron-left"></path>
                                        </g>
                                    </g>
                                </g>
                                <rect id="矩形" fill="#DCDFE6" fill-rule="nonzero" x="20.5333333" y="60" width="574.933333" height="1" rx="0.5"></rect>
                            </g>
                            <g id="条目小" transform="translate(0.000000, 122.000000)">
                                <g stroke-width="1" fill-rule="evenodd" id="分组">
                                    <g>
                                        <rect id="矩形" fill="#FFFFFF" fill-rule="nonzero" x="0" y="0" width="616" height="60"></rect>
                                        <text id="工作餐报销费规定" font-family="PingFangSC-Regular, PingFang SC" font-size="28" font-weight="normal" letter-spacing="-0.4107059" fill="#303133">
                                            <tspan x="37" y="40">在AMS上提交申请的步骤是</tspan>
                                        </text>
                                        <g id="icon_chevron-left" transform="translate(569.800000, 19.000000)" fill="#909399" opacity="0.4" stroke="#808FA3" stroke-width="0.3">
                                            <path d="M1.3545905,2.99213065 C0.762803303,2.43780085 0.744217021,1.52103856 1.31332895,0.944260396 C1.60513357,0.64881094 1.99507375,0.5 2.38538565,0.5 C2.75636782,0.5 3.12735,0.633966053 3.41580908,0.904070581 L13.0806753,9.9558309 C13.3721082,10.228832 13.5367826,10.6061094 13.5367826,11.000042 C13.5367826,11.3936125 13.3721082,11.7708899 13.0806753,12.043891 L3.41580908,21.0956513 C2.82402189,21.6499811 1.88244088,21.6322396 1.31332895,21.0554615 C0.744217021,20.4786833 0.762803303,19.561921 1.3545905,19.0075912 L9.90465157,11.000042 L1.3545905,2.99213065 Z" id="chevron-left"></path>
                                        </g>
                                    </g>
                                </g>
                                <rect id="矩形" fill="#DCDFE6" fill-rule="nonzero" x="20.5333333" y="60" width="574.933333" height="1" rx="0.5"></rect>
                            </g>
                            <g id="条目小" transform="translate(0.000000, 184.000000)">
                                <g stroke-width="1" fill-rule="evenodd" id="分组">
                                    <g>
                                        <rect id="矩形" fill="#FFFFFF" fill-rule="nonzero" x="0" y="0" width="616" height="60"></rect>
                                        <text id="工作餐报销费规定" font-family="PingFangSC-Regular, PingFang SC" font-size="28" font-weight="normal" letter-spacing="-0.4107059" fill="#303133">
                                            <tspan x="37" y="40">如何使用AMS (活动审批系统）</tspan>
                                        </text>
                                        <g id="icon_chevron-left" transform="translate(569.800000, 19.000000)" fill="#909399" opacity="0.4" stroke="#808FA3" stroke-width="0.3">
                                            <path d="M1.3545905,2.99213065 C0.762803303,2.43780085 0.744217021,1.52103856 1.31332895,0.944260396 C1.60513357,0.64881094 1.99507375,0.5 2.38538565,0.5 C2.75636782,0.5 3.12735,0.633966053 3.41580908,0.904070581 L13.0806753,9.9558309 C13.3721082,10.228832 13.5367826,10.6061094 13.5367826,11.000042 C13.5367826,11.3936125 13.3721082,11.7708899 13.0806753,12.043891 L3.41580908,21.0956513 C2.82402189,21.6499811 1.88244088,21.6322396 1.31332895,21.0554615 C0.744217021,20.4786833 0.762803303,19.561921 1.3545905,19.0075912 L9.90465157,11.000042 L1.3545905,2.99213065 Z" id="chevron-left"></path>
                                        </g>
                                    </g>
                                </g>
                                <rect id="矩形" fill="#DCDFE6" fill-rule="nonzero" x="20.5333333" y="60" width="574.933333" height="1" rx="0.5"></rect>
                            </g>
                            <g id="条目小" transform="translate(0.000000, 246.000000)">
                                <g stroke-width="1" fill-rule="evenodd" id="分组">
                                    <g>
                                        <rect id="矩形" fill="#FFFFFF" fill-rule="nonzero" x="0" y="0" width="616" height="60"></rect>
                                        <text id="工作餐报销费规定" font-family="PingFangSC-Regular, PingFang SC" font-size="28" font-weight="normal" letter-spacing="-0.4107059" fill="#303133">
                                            <tspan x="37" y="40">提交AMS时应注意的主要问题有哪些</tspan>
                                        </text>
                                        <g id="icon_chevron-left" transform="translate(569.800000, 19.000000)" fill="#909399" opacity="0.4" stroke="#808FA3" stroke-width="0.3">
                                            <path d="M1.3545905,2.99213065 C0.762803303,2.43780085 0.744217021,1.52103856 1.31332895,0.944260396 C1.60513357,0.64881094 1.99507375,0.5 2.38538565,0.5 C2.75636782,0.5 3.12735,0.633966053 3.41580908,0.904070581 L13.0806753,9.9558309 C13.3721082,10.228832 13.5367826,10.6061094 13.5367826,11.000042 C13.5367826,11.3936125 13.3721082,11.7708899 13.0806753,12.043891 L3.41580908,21.0956513 C2.82402189,21.6499811 1.88244088,21.6322396 1.31332895,21.0554615 C0.744217021,20.4786833 0.762803303,19.561921 1.3545905,19.0075912 L9.90465157,11.000042 L1.3545905,2.99213065 Z" id="chevron-left"></path>
                                        </g>
                                    </g>
                                </g>
                                <rect id="矩形" fill="#DCDFE6" fill-rule="nonzero" x="20.5333333" y="60" width="574.933333" height="1" rx="0.5"></rect>
                            </g>
                            <path d="M20,0 L596,0 C607.045695,-2.02906125e-15 616,8.954305 616,20 L616,60 L0,60 L-3.55271368e-15,20 C-4.90542118e-15,8.954305 8.954305,-5.0763661e-15 20,-7.10542736e-15 Z" id="矩形" fill-rule="nonzero"></path>
                            <g id="icon_hot2" transform="translate(41.000000, 17.000000)">
                                <g id="hot-7-copy">
                                    <polygon id="Clip-2" points="0.00200445012 0.0303340305 21.5033259 0.0303340305 21.5033259 27.6016494 0.00200445012 27.6016494"></polygon>
                                    <path d="M10.8630506,27.6016494 C14.5498691,27.6016494 17.7674458,25.7699074 19.5052707,23.2980757 C21.2431289,20.8241571 21.7690298,18.3543114 21.3839415,14.7843029 C20.9977842,11.2144628 19.0430445,7.14021879 18.7546709,7.48298457 C18.6490698,7.60803366 18.526932,8.76420757 17.9746726,9.50669285 C17.4224131,10.2493464 16.6767243,10.7012735 16.4205556,10.5388612 C16.1636185,10.3772903 16.179153,7.41108555 13.8119308,4.41529313 C11.7701311,1.83116971 8.39416938,-0.183854137 8.0197715,0.0486058906 C7.59562986,0.312504909 9.0626869,1.13587658 5.55476557,5.77326227 C2.04777965,10.4117251 1.10465246,11.8593997 0.342293265,14.7843029 C-1.40441797,21.4879102 3.75142861,27.6016494 10.8630506,27.6016494 Z M10.429154,23.4753324 C8.32772186,23.5304011 7.11867096,22.0611837 6.95347086,20.1318934 C6.84786974,18.889986 7.23299143,17.440359 8.32668622,15.6283422 C9.28063744,14.0477419 11.4377598,12.4946087 11.5618687,12.8156971 C11.7085611,13.1968696 11.1416692,14.6257279 11.8160664,16.1453352 C12.490497,17.6658513 13.0290594,17.4807181 13.5850938,19.0604095 C14.1891683,20.7719495 13.4590473,21.9133801 13.0133913,22.4461935 C12.5666996,22.9789734 11.795454,23.4378345 10.429154,23.4742553 L10.429154,23.4753324 Z" id="Fill-1" fill="url(#linearGradient-3)"></path>
                                </g>
                            </g>
                            <text id="热门问题" font-family="PingFangSC-Medium, PingFang SC" font-size="24" font-weight="400" letter-spacing="-0.3520336" fill="#606266">
                                <tspan x="76" y="40">热门问题</tspan>
                            </text>
                        </g>
                    </g>
                    <rect id="矩形-copy" fill="#DCDFE6" fill-rule="nonzero" x="22" y="59" width="573" height="1" rx="0.5"></rect>
                </g>
                <g id="热门问题-copy">
                    <g id="猜你想问-2">
                        <g id="猜你想问">
                            <g id="矩形">
                                <use fill="black" fill-opacity="1" filter="url(#filter-5)" xlink:href="#path-4"></use>
                                <use fill="#FFFFFF" fill-rule="evenodd" xlink:href="#path-4"></use>
                            </g>
                            <g id="moreQ" transform="translate(241.266667, 320.000000)">
                                <g>
                                    <g id="icon_chevron-left" transform="translate(117.320611, 17.000000) rotate(-270.000000) translate(-117.320611, -17.000000) translate(103.000000, 3.000000)" fill="#909399" opacity="0.4" stroke="#808FA3" stroke-width="0.3">
                                        <g id="chevron-left">
                                            <path d="M8.50992708,5.99213065 C7.92031062,5.43780085 7.90179251,4.52103856 8.46881689,3.9442604 C8.75955114,3.64881094 9.14806098,3.5 9.53694119,3.5 C9.90656257,3.5 10.2761839,3.63396605 10.5635849,3.90407058 L20.1929996,12.9558309 C20.4833635,13.228832 20.6474339,13.6061094 20.6474339,14.000042 C20.6474339,14.3936125 20.4833635,14.7708899 20.1929996,15.043891 L10.5635849,24.0956513 C9.97396847,24.6499811 9.03584127,24.6322396 8.46881689,24.0554615 C7.90179251,23.4786833 7.92031062,22.561921 8.50992708,22.0075912 L17.0286258,14.000042 L8.50992708,5.99213065 Z"></path>
                                        </g>
                                    </g>
                                    <text id="更多问题" font-family="PingFangSC-Regular, PingFang SC" font-size="24" font-weight="normal" letter-spacing="-0.3520336" fill="#606266">
                                        <tspan x="0" y="25">更多问题</tspan>
                                    </text>
                                </g>
                            </g>
                            <g id="moreQ" transform="translate(241.266667, 320.000000)" fill="#909399" opacity="0.4" stroke="#808FA3" stroke-width="0.3">
                                <g id="icon_chevron-left" transform="translate(120.120000, 17.000000) rotate(-270.000000) translate(-120.120000, -17.000000) translate(105.746667, 3.000000)">
                                    <g id="chevron-left">
                                        <path d="M8.54125716,5.99213065 C7.94946997,5.43780085 7.93088369,4.52103856 8.49999562,3.9442604 C8.79180023,3.64881094 9.18174041,3.5 9.57205232,3.5 C9.94303449,3.5 10.3140167,3.63396605 10.6024757,3.90407058 L20.267342,12.9558309 C20.5587749,13.228832 20.7234493,13.6061094 20.7234493,14.000042 C20.7234493,14.3936125 20.5587749,14.7708899 20.267342,15.043891 L10.6024757,24.0956513 C10.0106886,24.6499811 9.06910755,24.6322396 8.49999562,24.0554615 C7.93088369,23.4786833 7.94946997,22.561921 8.54125716,22.0075912 L17.0913182,14.000042 L8.54125716,5.99213065 Z"></path>
                                    </g>
                                </g>
                            </g>
                        </g>
                    </g>
                </g>
            </g>
        </g>
    </g>
</svg>