<?xml version="1.0" encoding="UTF-8"?>
<svg width="24px" height="24px" viewBox="0 0 24 24" version="1.1" xmlns="http://www.w3.org/2000/svg" xmlns:xlink="http://www.w3.org/1999/xlink">
    <!-- Generator: Sketch 51.3 (57544) - http://www.bohemiancoding.com/sketch -->
    <title>Shape</title>
    <desc>Created with Sketch.</desc>
    <defs>
        <rect id="path-1" x="0" y="0" width="616" height="368" rx="20"></rect>
        <filter x="-2.3%" y="-2.7%" width="104.5%" height="107.6%" filterUnits="objectBoundingBox" id="filter-2">
            <feOffset dx="0" dy="4" in="SourceAlpha" result="shadowOffsetOuter1"></feOffset>
            <feGaussianBlur stdDeviation="4" in="shadowOffsetOuter1" result="shadowBlurOuter1"></feGaussianBlur>
            <feColorMatrix values="0 0 0 0 0.823262117   0 0 0 0 0.822839832   0 0 0 0 0.822839832  0 0 0 0.5 0" type="matrix" in="shadowBlurOuter1"></feColorMatrix>
        </filter>
        <linearGradient x1="2.21504697%" y1="2.21504697%" x2="100%" y2="100%" id="linearGradient-3">
            <stop stop-color="#FABF7A" offset="0%"></stop>
            <stop stop-color="#F37291" offset="100%"></stop>
        </linearGradient>
    </defs>
    <g id="当前最新版本" stroke="none" stroke-width="1" fill="none" fill-rule="evenodd">
        <g id="首页-问问小森-联想搜索" transform="translate(-612.000000, -489.000000)">
            <rect fill="#F5F7FA" x="0" y="0" width="750" height="1334"></rect>
            <g id="分组" transform="translate(20.000000, 218.000000)">
                <g id="猜你想问" transform="translate(0.000000, 190.000000)">
                    <g stroke-width="1" fill-rule="evenodd">
                        <g id="矩形">
                            <use fill="black" fill-opacity="1" filter="url(#filter-2)" xlink:href="#path-1"></use>
                            <use fill="#FFFFFF" fill-rule="evenodd" xlink:href="#path-1"></use>
                        </g>
                        <g id="moreQ" transform="translate(241.266667, 320.000000)">
                            <g>
                                <g id="icon_chevron-left" transform="translate(117.320611, 17.000000) rotate(-270.000000) translate(-117.320611, -17.000000) translate(103.000000, 3.000000)" fill="#909399" opacity="0.4" stroke="#808FA3" stroke-width="0.3">
                                    <g id="chevron-left">
                                        <path d="M8.50992708,5.99213065 C7.92031062,5.43780085 7.90179251,4.52103856 8.46881689,3.9442604 C8.75955114,3.64881094 9.14806098,3.5 9.53694119,3.5 C9.90656257,3.5 10.2761839,3.63396605 10.5635849,3.90407058 L20.1929996,12.9558309 C20.4833635,13.228832 20.6474339,13.6061094 20.6474339,14.000042 C20.6474339,14.3936125 20.4833635,14.7708899 20.1929996,15.043891 L10.5635849,24.0956513 C9.97396847,24.6499811 9.03584127,24.6322396 8.46881689,24.0554615 C7.90179251,23.4786833 7.92031062,22.561921 8.50992708,22.0075912 L17.0286258,14.000042 L8.50992708,5.99213065 Z"></path>
                                    </g>
                                </g>
                                <text id="更多问题" font-family="PingFangSC-Regular, PingFang SC" font-size="24" font-weight="normal" letter-spacing="-0.3520336" fill="#606266">
                                    <tspan x="0" y="25">更多问题</tspan>
                                </text>
                            </g>
                        </g>
                        <g id="条目小" transform="translate(0.000000, 61.000000)">
                            <g stroke-width="1" fill-rule="evenodd" id="分组">
                                <g>
                                    <rect id="矩形" fill="#FFFFFF" fill-rule="nonzero" x="0" y="0" width="616" height="60"></rect>
                                    <text id="工作餐报销费规定" font-family="PingFangSC-Regular, PingFang SC" font-size="28" font-weight="normal" letter-spacing="-0.4107059" fill="#303133">
                                        <tspan x="37" y="40">工作餐报销费规定</tspan>
                                    </text>
                                    <g id="icon_chevron-left" transform="translate(569.800000, 19.000000)" fill="#909399" opacity="0.4" stroke="#808FA3" stroke-width="0.3">
                                        <path d="M1.3545905,2.99213065 C0.762803303,2.43780085 0.744217021,1.52103856 1.31332895,0.944260396 C1.60513357,0.64881094 1.99507375,0.5 2.38538565,0.5 C2.75636782,0.5 3.12735,0.633966053 3.41580908,0.904070581 L13.0806753,9.9558309 C13.3721082,10.228832 13.5367826,10.6061094 13.5367826,11.000042 C13.5367826,11.3936125 13.3721082,11.7708899 13.0806753,12.043891 L3.41580908,21.0956513 C2.82402189,21.6499811 1.88244088,21.6322396 1.31332895,21.0554615 C0.744217021,20.4786833 0.762803303,19.561921 1.3545905,19.0075912 L9.90465157,11.000042 L1.3545905,2.99213065 Z" id="chevron-left"></path>
                                    </g>
                                </g>
                            </g>
                            <rect id="矩形" fill="#DCDFE6" fill-rule="nonzero" x="20.5333333" y="60" width="574.933333" height="1" rx="0.5"></rect>
                        </g>
                        <g id="条目小" transform="translate(0.000000, 123.000000)">
                            <g stroke-width="1" fill-rule="evenodd" id="分组">
                                <g>
                                    <rect id="矩形" fill="#FFFFFF" fill-rule="nonzero" x="0" y="0" width="616" height="60"></rect>
                                    <text id="工作餐报销费规定" font-family="PingFangSC-Regular, PingFang SC" font-size="28" font-weight="normal" letter-spacing="-0.4107059" fill="#303133">
                                        <tspan x="37" y="40">商务座可以报销吗</tspan>
                                    </text>
                                    <g id="icon_chevron-left" transform="translate(569.800000, 19.000000)" fill="#909399" opacity="0.4" stroke="#808FA3" stroke-width="0.3">
                                        <path d="M1.3545905,2.99213065 C0.762803303,2.43780085 0.744217021,1.52103856 1.31332895,0.944260396 C1.60513357,0.64881094 1.99507375,0.5 2.38538565,0.5 C2.75636782,0.5 3.12735,0.633966053 3.41580908,0.904070581 L13.0806753,9.9558309 C13.3721082,10.228832 13.5367826,10.6061094 13.5367826,11.000042 C13.5367826,11.3936125 13.3721082,11.7708899 13.0806753,12.043891 L3.41580908,21.0956513 C2.82402189,21.6499811 1.88244088,21.6322396 1.31332895,21.0554615 C0.744217021,20.4786833 0.762803303,19.561921 1.3545905,19.0075912 L9.90465157,11.000042 L1.3545905,2.99213065 Z" id="chevron-left"></path>
                                    </g>
                                </g>
                            </g>
                            <rect id="矩形" fill="#DCDFE6" fill-rule="nonzero" x="20.5333333" y="60" width="574.933333" height="1" rx="0.5"></rect>
                        </g>
                        <g id="条目小" transform="translate(0.000000, 185.000000)">
                            <g stroke-width="1" fill-rule="evenodd" id="分组">
                                <g>
                                    <rect id="矩形" fill="#FFFFFF" fill-rule="nonzero" x="0" y="0" width="616" height="60"></rect>
                                    <text id="工作餐报销费规定" font-family="PingFangSC-Regular, PingFang SC" font-size="28" font-weight="normal" letter-spacing="-0.4107059" fill="#303133">
                                        <tspan x="37" y="40">国内差旅报销标准</tspan>
                                    </text>
                                    <g id="icon_chevron-left" transform="translate(569.800000, 19.000000)" fill="#909399" opacity="0.4" stroke="#808FA3" stroke-width="0.3">
                                        <path d="M1.3545905,2.99213065 C0.762803303,2.43780085 0.744217021,1.52103856 1.31332895,0.944260396 C1.60513357,0.64881094 1.99507375,0.5 2.38538565,0.5 C2.75636782,0.5 3.12735,0.633966053 3.41580908,0.904070581 L13.0806753,9.9558309 C13.3721082,10.228832 13.5367826,10.6061094 13.5367826,11.000042 C13.5367826,11.3936125 13.3721082,11.7708899 13.0806753,12.043891 L3.41580908,21.0956513 C2.82402189,21.6499811 1.88244088,21.6322396 1.31332895,21.0554615 C0.744217021,20.4786833 0.762803303,19.561921 1.3545905,19.0075912 L9.90465157,11.000042 L1.3545905,2.99213065 Z" id="chevron-left"></path>
                                    </g>
                                </g>
                            </g>
                            <rect id="矩形" fill="#DCDFE6" fill-rule="nonzero" x="20.5333333" y="60" width="574.933333" height="1" rx="0.5"></rect>
                        </g>
                        <g id="条目小" transform="translate(0.000000, 247.000000)">
                            <g stroke-width="1" fill-rule="evenodd" id="分组">
                                <g>
                                    <rect id="矩形" fill="#FFFFFF" fill-rule="nonzero" x="0" y="0" width="616" height="60"></rect>
                                    <text id="工作餐报销费规定" font-family="PingFangSC-Regular, PingFang SC" font-size="28" font-weight="normal" letter-spacing="-0.4107059" fill="#303133">
                                        <tspan x="37" y="40">普通员工有哪些福利</tspan>
                                    </text>
                                    <g id="icon_chevron-left" transform="translate(569.800000, 19.000000)" fill="#909399" opacity="0.4" stroke="#808FA3" stroke-width="0.3">
                                        <path d="M1.3545905,2.99213065 C0.762803303,2.43780085 0.744217021,1.52103856 1.31332895,0.944260396 C1.60513357,0.64881094 1.99507375,0.5 2.38538565,0.5 C2.75636782,0.5 3.12735,0.633966053 3.41580908,0.904070581 L13.0806753,9.9558309 C13.3721082,10.228832 13.5367826,10.6061094 13.5367826,11.000042 C13.5367826,11.3936125 13.3721082,11.7708899 13.0806753,12.043891 L3.41580908,21.0956513 C2.82402189,21.6499811 1.88244088,21.6322396 1.31332895,21.0554615 C0.744217021,20.4786833 0.762803303,19.561921 1.3545905,19.0075912 L9.90465157,11.000042 L1.3545905,2.99213065 Z" id="chevron-left"></path>
                                    </g>
                                </g>
                            </g>
                            <rect id="矩形" fill="#DCDFE6" fill-rule="nonzero" x="20.5333333" y="60" width="574.933333" height="1" rx="0.5"></rect>
                        </g>
                        <path d="M20,0 L596,0 C607.045695,-2.02906125e-15 616,8.954305 616,20 L616,60 L0,60 L-3.55271368e-15,20 C-4.90542118e-15,8.954305 8.954305,-5.0763661e-15 20,-7.10542736e-15 Z" id="矩形" fill="#FFFFFF" fill-rule="nonzero"></path>
                        <path d="M49.9999023,18 C42.2679991,18 36,23.8340544 36,31.0259584 C36,34.6759924 37.7820678,38.4839949 42.2399132,40.736023 C42.2399132,42.2379349 40.8159698,44.4979318 39.3859328,46 C43.6679971,45.624024 45.5379554,44.529963 47.0580314,43.7580109 C48.0080301,43.9418779 48.9879506,44.0459402 49.9999023,44.0459402 C57.7280166,44.0459402 64,38.2180187 64,31.0239662 C64,23.8340544 57.7280166,18 49.9999023,18 Z" id="Fill-1" fill="url(#linearGradient-3)"></path>
                        <text id="猜" font-family="PingFangSC-Regular, PingFang SC" font-size="16" font-weight="normal" fill="#FFFFFF">
                            <tspan x="42" y="37">猜</tspan>
                        </text>
                        <text font-family="PingFangSC-Medium, PingFang SC" font-size="24" font-weight="400" letter-spacing="-0.3520336" fill="#606266">
                            <tspan x="75" y="40">猜你想问</tspan>
                        </text>
                    </g>
                    <rect id="矩形" fill="#DCDFE6" fill-rule="nonzero" x="22" y="60" width="573" height="1" rx="0.5"></rect>
                </g>
            </g>
            <g id="分组-3" transform="translate(0.000000, 475.000000)" fill="#FFFFFF" fill-rule="nonzero">
                <rect id="矩形" x="0" y="0" width="750" height="223"></rect>
            </g>
            <g id="gengxin-3" transform="translate(612.000000, 489.000000)" fill="#303133">
                <path d="M1.66399999,13.1136 C1.66399999,13.1072 1.66399999,13.1008 1.6608,13.096 C1.6206405,12.7315069 1.60034384,12.3650986 1.60000001,11.9984 C1.60705443,6.25782228 6.25942127,1.60617119 12,1.60000001 C15.3302553,1.6028348 18.4564402,3.2052129 20.4032,5.90719999 L16.8896,5.90719999 L16.7936,5.90239999 C16.3486794,5.90239999 15.988,6.2630794 15.988,6.708 C15.988,7.1529206 16.3486794,7.51360001 16.7936,7.51360001 C16.8256,7.51360001 16.8576,7.51040002 16.8896,7.5072 L21.3664,7.5072 L21.3696,7.51519999 C21.3696,7.51519999 23.12,7.51039999 23.12,7.5072 L23.1232,7.5072 C22.5776,5.9712 21.5216,4.728 21.5216,4.728 C19.2615672,1.74993007 15.7385356,0.000550430069 12,0 C5.38399999,0 0,5.38240001 0,11.9984 C0,12.3552 0.0192,12.7104 0.0528,13.056 L0.0528,13.1136 C0.0900007664,13.5303488 0.439194163,13.8497601 0.857600004,13.8497601 C1.27600584,13.8497601 1.62519924,13.5303488 1.66240001,13.1136 L1.66399999,13.1136 Z M23.9792,11.5488 L23.9632,11.5488 C23.9221409,11.1275159 23.5629187,10.8093219 23.1397587,10.8194072 C22.7165986,10.8294924 22.3729428,11.1644382 22.352,11.5872 C22.352,11.6736 22.3648,11.76 22.3936,11.8384 C22.3984,11.8928 22.4,11.9456 22.4,12 C22.3938256,17.7400592 17.7416601,22.3915089 12.0016,22.3968 C8.88429707,22.3939085 5.93342005,20.989848 3.9648,18.5728 L7.3536,18.5728 C7.38559999,18.5808 7.41919999,18.5808 7.45120001,18.5808 C7.4832,18.5808 7.5168,18.5808 7.54720001,18.5744 L7.584,18.5744 L7.584,18.5664 C7.97744397,18.5076755 8.26862981,18.1698024 8.26862981,17.772 C8.26862981,17.3741976 7.97744397,17.0363245 7.584,16.9776 L7.584,16.9744 L7.54399999,16.9744 C7.47965272,16.9674699 7.41474728,16.9674699 7.35040001,16.9744 L1.17919999,16.9744 C1.17919999,16.9744 1.39359998,17.9904 2.7792,19.6384 C4.99999999,22.2784 8.28640001,24 12,24 C18.6176,24 24,18.6176 24,12 C24,11.8464 23.984,11.6992 23.9792,11.5488 Z" id="Shape"></path>
            </g>
        </g>
    </g>
</svg>